<svg viewBox="0 0 28 27" fill="none" xmlns="http://www.w3.org/2000/svg">
<path fill-rule="evenodd" clip-rule="evenodd" d="M23.6949 15.8065C23.4232 15.9545 23.1621 16.1199 22.9132 16.3015C23.0006 16.6062 23.1138 16.9034 23.2516 17.1902L23.2658 17.2234C23.6484 18.1175 24.1182 19.2151 23.4383 20.1152C22.7499 21.0265 21.4899 20.9365 20.4749 20.8465C20.1525 20.8246 19.829 20.8246 19.5066 20.8465C19.4315 21.0327 19.3367 21.3996 19.2675 21.6674L19.2675 21.6674L19.2499 21.7352C19.0283 22.6915 18.7366 23.884 17.6049 24.2327C17.4278 24.289 17.243 24.3193 17.0566 24.3227C16.1938 24.2098 15.3981 23.8123 14.8049 23.1977C14.5557 22.9456 14.2865 22.7124 13.9999 22.5002C13.7166 22.6835 13.4475 22.8866 13.1949 23.1077L13.1904 23.1115C12.4328 23.7409 11.4894 24.5246 10.3949 24.2327C9.29825 23.9402 8.97159 22.6577 8.74992 21.7015L8.73235 21.6336L8.73234 21.6335C8.66315 21.3658 8.56834 20.9989 8.49325 20.8127C8.17087 20.7909 7.8473 20.7909 7.52492 20.8127C6.50992 20.9027 5.26159 21.004 4.56159 20.0815C3.8797 19.1829 4.3381 18.1134 4.71816 17.2267L4.74825 17.1565C4.88608 16.8697 4.99924 16.5724 5.08659 16.2677C4.83776 16.0861 4.57663 15.9207 4.30492 15.7727C3.42992 15.3002 2.33325 14.6252 2.33325 13.5002C2.33325 12.3752 3.42992 11.7002 4.30492 11.2502C4.57663 11.1022 4.83776 10.9369 5.08659 10.7552C4.99924 10.4506 4.88608 10.1533 4.74825 9.86649L4.73407 9.83335C4.35144 8.93926 3.88167 7.84159 4.56159 6.94149C5.24992 6.03024 6.50992 6.12024 7.52492 6.21024C7.8473 6.23212 8.17087 6.23212 8.49325 6.21024C8.56834 6.02405 8.66315 5.65716 8.73235 5.3894L8.74992 5.32149C8.97159 4.36524 9.26325 3.17274 10.3949 2.82399C11.5003 2.48333 12.3943 3.22682 13.1419 3.84867L13.1949 3.89274C13.4475 4.11388 13.7166 4.31693 13.9999 4.50024C14.2832 4.31693 14.5523 4.11388 14.8049 3.89274L14.8262 3.87504C15.5807 3.24812 16.5069 2.4785 17.6049 2.82399C18.7133 3.17274 19.0283 4.36524 19.2499 5.32149L19.2675 5.38935L19.2675 5.3894C19.3367 5.65716 19.4315 6.02405 19.5066 6.21024C19.829 6.23212 20.1525 6.23212 20.4749 6.21024C21.4899 6.12024 22.7383 6.01899 23.4383 6.94149C24.1201 7.84012 23.6617 8.90956 23.2817 9.79623L23.2516 9.86649C23.1138 10.1533 23.0006 10.4506 22.9132 10.7552C23.1621 10.9369 23.4232 11.1022 23.6949 11.2502C24.5699 11.7002 25.6666 12.3752 25.6666 13.5002C25.6666 14.6252 24.5699 15.3002 23.6949 15.8065ZM18.2233 9.81024C18.7236 10.1966 18.807 10.8999 18.4099 11.3852L13.7433 17.0102C13.5388 17.2612 13.2335 17.4166 12.9033 17.4377H12.8333C12.5231 17.4395 12.2251 17.3221 12.0049 17.1115L9.67159 14.8615C9.21411 14.4204 9.21411 13.7051 9.67159 13.264C10.1291 12.8229 10.8708 12.8229 11.3283 13.264L12.7399 14.6252L16.5899 9.99024C16.9906 9.50772 17.72 9.42734 18.2233 9.81024ZM22.4932 13.1177C22.6682 13.219 22.9132 13.3652 23.1116 13.5002C22.9132 13.6352 22.6682 13.7815 22.5282 13.804C21.7209 14.1381 21.069 14.7466 20.6966 15.514C20.5268 16.3599 20.6845 17.2364 21.1399 17.9777L21.3849 18.574H20.7083C19.8395 18.391 18.9314 18.5189 18.1532 18.934C17.4849 19.5159 17.0683 20.3192 16.9866 21.184C16.9689 21.2521 16.9496 21.3299 16.9292 21.4119C16.8958 21.5465 16.8595 21.6924 16.8233 21.8252C16.6483 21.7015 16.4616 21.544 16.3333 21.4315C15.7238 20.7853 14.8976 20.367 13.9999 20.2502C13.0954 20.4102 12.2801 20.8771 11.7016 21.5665C11.5733 21.679 11.3866 21.8365 11.2116 21.9602C11.194 21.896 11.1723 21.8287 11.1504 21.7611C11.0996 21.6038 11.0483 21.4449 11.0483 21.319C10.9665 20.4542 10.55 19.6509 9.88159 19.069C9.10346 18.6539 8.19534 18.526 7.32658 18.709H6.64992L6.89492 18.1127C7.3503 17.3714 7.50803 16.4949 7.33825 15.649C6.96586 14.8816 6.31397 14.2731 5.50659 13.939C5.33159 13.8377 5.08659 13.6915 4.88825 13.5565C5.08659 13.4215 5.33159 13.2752 5.50659 13.174C6.31397 12.8399 6.96586 12.2313 7.33825 11.464C7.50803 10.6181 7.3503 9.74153 6.89492 9.00024L6.57992 8.40399H7.25659C8.12534 8.58699 9.03346 8.45904 9.81158 8.04399C10.48 7.46208 10.8965 6.65874 10.9783 5.79399C10.9959 5.72585 11.0153 5.64804 11.0356 5.56606C11.0691 5.43145 11.1053 5.28558 11.1416 5.15274C11.3166 5.27649 11.5033 5.43399 11.6316 5.54649C12.2499 6.1719 13.0751 6.56976 13.9649 6.67149C14.8548 6.56976 15.6799 6.1719 16.2983 5.54649C16.4266 5.43399 16.6132 5.27649 16.7882 5.15274C16.8058 5.217 16.8275 5.28431 16.8494 5.35192C16.9002 5.5092 16.9516 5.6681 16.9516 5.79399C17.0333 6.65874 17.4499 7.46208 18.1183 8.04399C18.8964 8.45904 19.8045 8.58699 20.6733 8.40399H21.3499L21.1049 9.00024C20.6637 9.72591 20.5064 10.5799 20.6616 11.4077C21.034 12.1751 21.6859 12.7837 22.4932 13.1177Z" fill="#212121"/>
</svg>
